<?xml version="1.0" encoding="UTF-8"?>
<svg id="Layer_1" data-name="Layer 1" xmlns="http://www.w3.org/2000/svg" version="1.1" viewBox="0 0 16 16">
  <defs>
    <style>
      .cls-1 {
        fill: #bd2024;
        stroke-width: 0px;
      }
    </style>
  </defs>
  <path class="cls-1" d="M7.1,6.4H2.1v.9h4.7v1.4H2.1v2.3H.7v-6h6.4v1.4Z"/>
  <path class="cls-1" d="M15.3,9.2c0,.5-.2.9-.5,1.3-.3.4-.7.6-1.2.6h-5.2v-1.4h5.2c.2,0,.3-.2.3-.5s0-.5-.3-.5h-3.8c-.5,0-.9-.2-1.2-.6-.3-.4-.5-.8-.5-1.3s.2-.9.5-1.3c.3-.4.7-.6,1.2-.6h5.2v1.4h-5.2c-.2,0-.3.2-.3.5s0,.4.3.4h3.8c.5,0,.9.2,1.2.6.3.4.5.8.5,1.3Z"/>
</svg>