<?xml version="1.0" encoding="UTF-8"?>
<svg id="Layer_2" data-name="Layer 2" xmlns="http://www.w3.org/2000/svg" viewBox="0 0 106.26 26">
  <defs>
    <style>
      .cls-1 {
        fill: #fff;
        stroke-width: 0px;
      }
    </style>
  </defs>
  <g id="Layer_1-2" data-name="Layer 1">
    <g>
      <g>
        <path class="cls-1" d="M12.72,2.78H2.78v1.78h9.31v2.78H2.78v4.56H0V0h12.72v2.78Z"/>
        <path class="cls-1" d="M28.36,8.14c0,1.08-.38,1.98-1.14,2.69-.76.72-1.68,1.08-2.76,1.08h-7c-1.08,0-2-.36-2.76-1.08-.76-.72-1.14-1.61-1.14-2.69V3.77c0-1.08.38-1.98,1.14-2.69.76-.72,1.68-1.08,2.76-1.08h7c1.08,0,2,.36,2.76,1.08.76.72,1.14,1.62,1.14,2.69v4.37ZM25.58,8.14V3.77c0-.66-.37-.99-1.11-.99h-7c-.74,0-1.11.33-1.11.99v4.36c0,.66.37.99,1.11.99h7c.74,0,1.11-.33,1.11-.99Z"/>
        <path class="cls-1" d="M42.64,11.91h-9.22c-1.08,0-2-.36-2.76-1.08-.76-.72-1.14-1.61-1.14-2.69V3.77c0-1.08.38-1.98,1.14-2.69.76-.72,1.68-1.08,2.76-1.08h9.22v2.78h-9.22c-.74,0-1.11.33-1.11.99v4.36c0,.66.37.99,1.11.99h9.22v2.78Z"/>
        <path class="cls-1" d="M58.44,8.23c0,1-.32,1.87-.95,2.6-.63.73-1.44,1.09-2.43,1.09h-7.88c-1,0-1.82-.36-2.44-1.09-.63-.73-.94-1.59-.94-2.6V0h2.78v8.23c0,.6.2.9.6.9h7.9c.39,0,.58-.3.58-.9V0h2.78v8.23Z"/>
        <path class="cls-1" d="M73.82,8.24c0,1-.3,1.86-.9,2.56-.65.74-1.47,1.11-2.46,1.11h-10.29v-2.78h10.29c.39,0,.58-.3.58-.89s-.19-.89-.58-.89h-7.48c-.99,0-1.81-.37-2.46-1.11-.62-.7-.93-1.54-.93-2.55s.32-1.87.95-2.6c.63-.73,1.44-1.09,2.43-1.09h10.29v2.78h-10.31c-.39,0-.58.3-.58.9s.19.88.58.88h7.5c.99,0,1.81.37,2.46,1.11.6.71.91,1.56.91,2.56Z"/>
      </g>
      <g>
        <path class="cls-1" d="M14.23,22.33c0,1-.3,1.86-.9,2.56-.65.74-1.47,1.11-2.46,1.11H.58v-2.78h10.29c.39,0,.58-.3.58-.89s-.19-.89-.58-.89H3.38c-.99,0-1.81-.37-2.46-1.11-.62-.7-.93-1.54-.93-2.55s.32-1.87.95-2.6c.63-.73,1.44-1.09,2.43-1.09h10.29v2.78H3.36c-.39,0-.58.3-.58.9s.19.88.58.88h7.5c.99,0,1.81.37,2.46,1.11.6.71.91,1.56.91,2.56Z"/>
        <path class="cls-1" d="M28.11,16.87h-9.94v1.78h9.29v2.78h-9.29v1.78h9.92v2.78h-12.7v-11.91h12.72v2.78Z"/>
        <path class="cls-1" d="M43.26,26h-3.8l-5.96-6.67h7.16c.51,0,.76-.41.76-1.23s-.25-1.23-.76-1.23h-8.62v9.13h-2.78v-11.91h11.56c1.07,0,1.91.42,2.53,1.25.57.76.86,1.68.86,2.76s-.29,2-.86,2.76c-.62.83-1.46,1.25-2.53,1.25h-1.07l3.5,3.89Z"/>
        <path class="cls-1" d="M59.16,14.09l-6.07,11.91h-2.36l-6.09-11.91h3.1l4.19,8.16,4.12-8.16h3.1Z"/>
        <path class="cls-1" d="M62.72,26h-2.78v-11.91h2.78v11.91Z"/>
        <path class="cls-1" d="M77,26h-9.22c-1.08,0-2-.36-2.76-1.08-.76-.72-1.14-1.61-1.14-2.69v-4.37c0-1.08.38-1.98,1.14-2.69.76-.72,1.68-1.08,2.76-1.08h9.22v2.78h-9.22c-.74,0-1.11.33-1.11.99v4.36c0,.66.37.99,1.11.99h9.22v2.78Z"/>
        <path class="cls-1" d="M90.88,16.87h-9.94v1.78h9.29v2.78h-9.29v1.78h9.92v2.78h-12.7v-11.91h12.72v2.78Z"/>
        <path class="cls-1" d="M106.26,22.33c0,1-.3,1.86-.9,2.56-.65.74-1.47,1.11-2.46,1.11h-10.29v-2.78h10.29c.39,0,.58-.3.58-.89s-.19-.89-.58-.89h-7.48c-.99,0-1.81-.37-2.46-1.11-.62-.7-.93-1.54-.93-2.55s.32-1.87.95-2.6c.63-.73,1.44-1.09,2.43-1.09h10.29v2.78h-10.31c-.39,0-.58.3-.58.9s.19.88.58.88h7.5c.99,0,1.81.37,2.46,1.11.6.71.91,1.56.91,2.56Z"/>
      </g>
    </g>
  </g>
</svg>